<svg xmlns="http://www.w3.org/2000/svg" width="453" height="534" fill="none" viewBox="0 0 453 534">
    <path fill="#EBF3F9" stroke="#fcfcfc" stroke-width="20" d="M180.666 337.714l.181 9.11 9.088.665 73.131 5.346 9.949.727.752-9.947c1.326-17.544 5.268-30.873 11.229-40.581 6.558-10.677 14.161-19.715 22.784-27.192l.092-.08.09-.081c9.063-8.253 18.936-15.827 29.628-22.72 11.745-7.572 22.641-16.369 32.684-26.379l.074-.074.073-.075c10.399-10.809 19.166-23.76 26.37-38.724 8.021-16.079 12.71-35.983 14.473-59.313 2.762-36.556-7.622-67.342-31.702-91.234-23.946-24.237-58.04-37.347-100.895-40.48-31.51-2.303-59.303-.47-83.178 5.789l-.03.008-.03.008c-22.844 6.141-43.51 14.566-61.925 25.336L125.9 32.27l3.452 8.104 28.134 66.039 4.474 10.502 9.822-5.817c5.554-3.289 11.776-6.373 18.689-9.236l.107-.045.107-.047c7.269-3.211 14.684-5.781 22.248-7.716l.239-.06.235-.074c7.52-2.323 14.916-3.811 22.197-4.491l.268-.025.266-.04c7.422-1.098 14.213-1.385 20.408-.932 21.152 1.546 32.26 6.96 37.225 13.385l.079.101.081.099c6.136 7.532 9.172 17.527 8.153 31.012-.773 10.229-3.823 18.476-8.85 25.151-5.766 7.232-13.014 14.301-21.838 21.175l-.101.078-.098.081c-8.817 7.237-18.557 14.867-29.225 22.89-11.093 8.285-21.272 18.46-30.564 30.437l-.027.035-.027.035c-9.091 11.937-16.518 26.392-22.412 43.171-6.126 17.084-8.751 37.739-8.276 61.632zm.678 49.78c-12.868 10.174-19.606 24.757-20.941 42.425-1.339 17.722 3.149 33.274 14.219 45.61 10.998 12.255 25.984 18.699 43.875 20.007 18.602 1.36 34.877-2.702 47.685-13.297 12.784-10.574 19.558-25.287 20.897-43.01 1.335-17.667-3.135-33.085-14.35-45.038-11.086-12.3-26.556-18.657-45.111-20.013-17.849-1.305-33.59 2.867-46.274 13.316z"/>
</svg>
